<svg aria-roledescription="er" viewBox="0 0 766.019287109375 584" style="max-width: 766.019px; background-color: white;" xmlns:xlink="http://www.w3.org/1999/xlink" xmlns="http://www.w3.org/2000/svg" width="100%" id="mermaid-0"><style>#mermaid-0{font-family:"trebuchet ms",verdana,arial,sans-serif;font-size:16px;fill:#000000;}#mermaid-0 .error-icon{fill:#552222;}#mermaid-0 .error-text{fill:#552222;stroke:#552222;}#mermaid-0 .edge-thickness-normal{stroke-width:2px;}#mermaid-0 .edge-thickness-thick{stroke-width:3.5px;}#mermaid-0 .edge-pattern-solid{stroke-dasharray:0;}#mermaid-0 .edge-pattern-dashed{stroke-dasharray:3;}#mermaid-0 .edge-pattern-dotted{stroke-dasharray:2;}#mermaid-0 .marker{fill:#000000;stroke:#000000;}#mermaid-0 .marker.cross{stroke:#000000;}#mermaid-0 svg{font-family:"trebuchet ms",verdana,arial,sans-serif;font-size:16px;}#mermaid-0 .entityBox{fill:#cde498;stroke:#13540c;}#mermaid-0 .attributeBoxOdd{fill:#ffffff;stroke:#13540c;}#mermaid-0 .attributeBoxEven{fill:#f2f2f2;stroke:#13540c;}#mermaid-0 .relationshipLabelBox{fill:hsl(78.1578947368, 58.4615384615%, 84.5098039216%);opacity:0.7;background-color:hsl(78.1578947368, 58.4615384615%, 84.5098039216%);}#mermaid-0 .relationshipLabelBox rect{opacity:0.5;}#mermaid-0 .relationshipLine{stroke:#000000;}#mermaid-0 .entityTitleText{text-anchor:middle;font-size:18px;fill:#000000;}#mermaid-0 :root{--mermaid-font-family:"trebuchet ms",verdana,arial,sans-serif;}</style><g/><defs><marker orient="auto" markerHeight="18" markerWidth="18" refY="9" refX="0" id="ONLY_ONE_START"><path d="M9,0 L9,18 M15,0 L15,18" fill="none" stroke="gray"/></marker></defs><defs><marker orient="auto" markerHeight="18" markerWidth="18" refY="9" refX="18" id="ONLY_ONE_END"><path d="M3,0 L3,18 M9,0 L9,18" fill="none" stroke="gray"/></marker></defs><defs><marker orient="auto" markerHeight="18" markerWidth="30" refY="9" refX="0" id="ZERO_OR_ONE_START"><circle r="6" cy="9" cx="21" fill="white" stroke="gray"/><path d="M9,0 L9,18" fill="none" stroke="gray"/></marker></defs><defs><marker orient="auto" markerHeight="18" markerWidth="30" refY="9" refX="30" id="ZERO_OR_ONE_END"><circle r="6" cy="9" cx="9" fill="white" stroke="gray"/><path d="M21,0 L21,18" fill="none" stroke="gray"/></marker></defs><defs><marker orient="auto" markerHeight="36" markerWidth="45" refY="18" refX="18" id="ONE_OR_MORE_START"><path d="M0,18 Q 18,0 36,18 Q 18,36 0,18 M42,9 L42,27" fill="none" stroke="gray"/></marker></defs><defs><marker orient="auto" markerHeight="36" markerWidth="45" refY="18" refX="27" id="ONE_OR_MORE_END"><path d="M3,9 L3,27 M9,18 Q27,0 45,18 Q27,36 9,18" fill="none" stroke="gray"/></marker></defs><defs><marker orient="auto" markerHeight="36" markerWidth="57" refY="18" refX="18" id="ZERO_OR_MORE_START"><circle r="6" cy="18" cx="48" fill="white" stroke="gray"/><path d="M0,18 Q18,0 36,18 Q18,36 0,18" fill="none" stroke="gray"/></marker></defs><defs><marker orient="auto" markerHeight="36" markerWidth="57" refY="18" refX="39" id="ZERO_OR_MORE_END"><circle r="6" cy="18" cx="9" fill="white" stroke="gray"/><path d="M21,18 Q39,0 57,18 Q39,36 21,18" fill="none" stroke="gray"/></marker></defs><path style="stroke: gray; fill: none;" marker-start="url(#ZERO_OR_MORE_START)" marker-end="url(#ONLY_ONE_END)" d="M512.3250806941543,209L500.27284098780433,226.5C488.22060128145444,244,464.11612186875453,279,452.0638821624046,308.5C440.0116424560547,338,440.0116424560547,362,440.0116424560547,374L440.0116424560547,386" class="er relationshipLine"/><path style="stroke: gray; fill: none;" marker-start="url(#ZERO_OR_MORE_START)" marker-end="url(#ONLY_ONE_END)" d="M604.6108018742051,209L616.663041580555,226.5C628.715281286905,244,652.8197606996049,279,664.8720004059547,304.8333333333333C676.9242401123047,330.6666666666667,676.9242401123047,347.3333333333333,676.9242401123047,355.6666666666667L676.9242401123047,364" class="er relationshipLine"/><g transform="translate(20,20 )" id="entity-User-f4eafc64-e74c-4dc4-bc9e-77dfa7411c9c"><rect height="244" width="135.38717651367188" y="0" x="0" class="er entityBox"/><text style="dominant-baseline: middle; text-anchor: middle; font-size: 12px;" transform="translate(67.69358825683594,12)" y="0" x="0" id="text-entity-User-f4eafc64-e74c-4dc4-bc9e-77dfa7411c9c" class="er entityLabel">User</text><rect height="22" width="54.095550537109375" y="24" x="0" class="er attributeBoxOdd"/><text style="dominant-baseline: middle; font-size: 10.2px;" transform="translate(5,35)" y="0" x="0" id="text-entity-User-f4eafc64-e74c-4dc4-bc9e-77dfa7411c9c-attr-1-type" class="er entityLabel">String</text><rect height="22" width="58.60394287109375" y="24" x="54.095550537109375" class="er attributeBoxOdd"/><text style="dominant-baseline: middle; font-size: 10.2px;" transform="translate(59.095550537109375,35)" y="0" x="0" id="text-entity-User-f4eafc64-e74c-4dc4-bc9e-77dfa7411c9c-attr-1-name" class="er entityLabel">id</text><rect height="22" width="22.68768310546875" y="24" x="112.69949340820312" class="er attributeBoxOdd"/><text style="dominant-baseline: middle; font-size: 10.2px;" transform="translate(117.69949340820312,35)" y="0" x="0" id="text-entity-User-f4eafc64-e74c-4dc4-bc9e-77dfa7411c9c-attr-1-key" class="er entityLabel">PK</text><rect height="22" width="54.095550537109375" y="46" x="0" class="er attributeBoxEven"/><text style="dominant-baseline: middle; font-size: 10.2px;" transform="translate(5,57)" y="0" x="0" id="text-entity-User-f4eafc64-e74c-4dc4-bc9e-77dfa7411c9c-attr-2-type" class="er entityLabel">String</text><rect height="22" width="58.60394287109375" y="46" x="54.095550537109375" class="er attributeBoxEven"/><text style="dominant-baseline: middle; font-size: 10.2px;" transform="translate(59.095550537109375,57)" y="0" x="0" id="text-entity-User-f4eafc64-e74c-4dc4-bc9e-77dfa7411c9c-attr-2-name" class="er entityLabel">firstName</text><rect height="22" width="22.68768310546875" y="46" x="112.69949340820312" class="er attributeBoxEven"/><text style="dominant-baseline: middle; font-size: 10.2px;" transform="translate(117.69949340820312,57)" y="0" x="0" id="text-entity-User-f4eafc64-e74c-4dc4-bc9e-77dfa7411c9c-attr-2-key" class="er entityLabel"/><rect height="22" width="54.095550537109375" y="68" x="0" class="er attributeBoxOdd"/><text style="dominant-baseline: middle; font-size: 10.2px;" transform="translate(5,79)" y="0" x="0" id="text-entity-User-f4eafc64-e74c-4dc4-bc9e-77dfa7411c9c-attr-3-type" class="er entityLabel">String</text><rect height="22" width="58.60394287109375" y="68" x="54.095550537109375" class="er attributeBoxOdd"/><text style="dominant-baseline: middle; font-size: 10.2px;" transform="translate(59.095550537109375,79)" y="0" x="0" id="text-entity-User-f4eafc64-e74c-4dc4-bc9e-77dfa7411c9c-attr-3-name" class="er entityLabel">lastName</text><rect height="22" width="22.68768310546875" y="68" x="112.69949340820312" class="er attributeBoxOdd"/><text style="dominant-baseline: middle; font-size: 10.2px;" transform="translate(117.69949340820312,79)" y="0" x="0" id="text-entity-User-f4eafc64-e74c-4dc4-bc9e-77dfa7411c9c-attr-3-key" class="er entityLabel"/><rect height="22" width="54.095550537109375" y="90" x="0" class="er attributeBoxEven"/><text style="dominant-baseline: middle; font-size: 10.2px;" transform="translate(5,101)" y="0" x="0" id="text-entity-User-f4eafc64-e74c-4dc4-bc9e-77dfa7411c9c-attr-4-type" class="er entityLabel">String</text><rect height="22" width="58.60394287109375" y="90" x="54.095550537109375" class="er attributeBoxEven"/><text style="dominant-baseline: middle; font-size: 10.2px;" transform="translate(59.095550537109375,101)" y="0" x="0" id="text-entity-User-f4eafc64-e74c-4dc4-bc9e-77dfa7411c9c-attr-4-name" class="er entityLabel">email</text><rect height="22" width="22.68768310546875" y="90" x="112.69949340820312" class="er attributeBoxEven"/><text style="dominant-baseline: middle; font-size: 10.2px;" transform="translate(117.69949340820312,101)" y="0" x="0" id="text-entity-User-f4eafc64-e74c-4dc4-bc9e-77dfa7411c9c-attr-4-key" class="er entityLabel"/><rect height="22" width="54.095550537109375" y="112" x="0" class="er attributeBoxOdd"/><text style="dominant-baseline: middle; font-size: 10.2px;" transform="translate(5,123)" y="0" x="0" id="text-entity-User-f4eafc64-e74c-4dc4-bc9e-77dfa7411c9c-attr-5-type" class="er entityLabel">String</text><rect height="22" width="58.60394287109375" y="112" x="54.095550537109375" class="er attributeBoxOdd"/><text style="dominant-baseline: middle; font-size: 10.2px;" transform="translate(59.095550537109375,123)" y="0" x="0" id="text-entity-User-f4eafc64-e74c-4dc4-bc9e-77dfa7411c9c-attr-5-name" class="er entityLabel">password</text><rect height="22" width="22.68768310546875" y="112" x="112.69949340820312" class="er attributeBoxOdd"/><text style="dominant-baseline: middle; font-size: 10.2px;" transform="translate(117.69949340820312,123)" y="0" x="0" id="text-entity-User-f4eafc64-e74c-4dc4-bc9e-77dfa7411c9c-attr-5-key" class="er entityLabel"/><rect height="22" width="54.095550537109375" y="134" x="0" class="er attributeBoxEven"/><text style="dominant-baseline: middle; font-size: 10.2px;" transform="translate(5,145)" y="0" x="0" id="text-entity-User-f4eafc64-e74c-4dc4-bc9e-77dfa7411c9c-attr-6-type" class="er entityLabel">String</text><rect height="22" width="58.60394287109375" y="134" x="54.095550537109375" class="er attributeBoxEven"/><text style="dominant-baseline: middle; font-size: 10.2px;" transform="translate(59.095550537109375,145)" y="0" x="0" id="text-entity-User-f4eafc64-e74c-4dc4-bc9e-77dfa7411c9c-attr-6-name" class="er entityLabel">role</text><rect height="22" width="22.68768310546875" y="134" x="112.69949340820312" class="er attributeBoxEven"/><text style="dominant-baseline: middle; font-size: 10.2px;" transform="translate(117.69949340820312,145)" y="0" x="0" id="text-entity-User-f4eafc64-e74c-4dc4-bc9e-77dfa7411c9c-attr-6-key" class="er entityLabel"/><rect height="22" width="54.095550537109375" y="156" x="0" class="er attributeBoxOdd"/><text style="dominant-baseline: middle; font-size: 10.2px;" transform="translate(5,167)" y="0" x="0" id="text-entity-User-f4eafc64-e74c-4dc4-bc9e-77dfa7411c9c-attr-7-type" class="er entityLabel">String</text><rect height="22" width="58.60394287109375" y="156" x="54.095550537109375" class="er attributeBoxOdd"/><text style="dominant-baseline: middle; font-size: 10.2px;" transform="translate(59.095550537109375,167)" y="0" x="0" id="text-entity-User-f4eafc64-e74c-4dc4-bc9e-77dfa7411c9c-attr-7-name" class="er entityLabel">phone</text><rect height="22" width="22.68768310546875" y="156" x="112.69949340820312" class="er attributeBoxOdd"/><text style="dominant-baseline: middle; font-size: 10.2px;" transform="translate(117.69949340820312,167)" y="0" x="0" id="text-entity-User-f4eafc64-e74c-4dc4-bc9e-77dfa7411c9c-attr-7-key" class="er entityLabel"/><rect height="22" width="54.095550537109375" y="178" x="0" class="er attributeBoxEven"/><text style="dominant-baseline: middle; font-size: 10.2px;" transform="translate(5,189)" y="0" x="0" id="text-entity-User-f4eafc64-e74c-4dc4-bc9e-77dfa7411c9c-attr-8-type" class="er entityLabel">String</text><rect height="22" width="58.60394287109375" y="178" x="54.095550537109375" class="er attributeBoxEven"/><text style="dominant-baseline: middle; font-size: 10.2px;" transform="translate(59.095550537109375,189)" y="0" x="0" id="text-entity-User-f4eafc64-e74c-4dc4-bc9e-77dfa7411c9c-attr-8-name" class="er entityLabel">address</text><rect height="22" width="22.68768310546875" y="178" x="112.69949340820312" class="er attributeBoxEven"/><text style="dominant-baseline: middle; font-size: 10.2px;" transform="translate(117.69949340820312,189)" y="0" x="0" id="text-entity-User-f4eafc64-e74c-4dc4-bc9e-77dfa7411c9c-attr-8-key" class="er entityLabel"/><rect height="22" width="54.095550537109375" y="200" x="0" class="er attributeBoxOdd"/><text style="dominant-baseline: middle; font-size: 10.2px;" transform="translate(5,211)" y="0" x="0" id="text-entity-User-f4eafc64-e74c-4dc4-bc9e-77dfa7411c9c-attr-9-type" class="er entityLabel">DateTime</text><rect height="22" width="58.60394287109375" y="200" x="54.095550537109375" class="er attributeBoxOdd"/><text style="dominant-baseline: middle; font-size: 10.2px;" transform="translate(59.095550537109375,211)" y="0" x="0" id="text-entity-User-f4eafc64-e74c-4dc4-bc9e-77dfa7411c9c-attr-9-name" class="er entityLabel">createdAt</text><rect height="22" width="22.68768310546875" y="200" x="112.69949340820312" class="er attributeBoxOdd"/><text style="dominant-baseline: middle; font-size: 10.2px;" transform="translate(117.69949340820312,211)" y="0" x="0" id="text-entity-User-f4eafc64-e74c-4dc4-bc9e-77dfa7411c9c-attr-9-key" class="er entityLabel"/><rect height="22" width="54.095550537109375" y="222" x="0" class="er attributeBoxEven"/><text style="dominant-baseline: middle; font-size: 10.2px;" transform="translate(5,233)" y="0" x="0" id="text-entity-User-f4eafc64-e74c-4dc4-bc9e-77dfa7411c9c-attr-10-type" class="er entityLabel">DateTime</text><rect height="22" width="58.60394287109375" y="222" x="54.095550537109375" class="er attributeBoxEven"/><text style="dominant-baseline: middle; font-size: 10.2px;" transform="translate(59.095550537109375,233)" y="0" x="0" id="text-entity-User-f4eafc64-e74c-4dc4-bc9e-77dfa7411c9c-attr-10-name" class="er entityLabel">updatedAt</text><rect height="22" width="22.68768310546875" y="222" x="112.69949340820312" class="er attributeBoxEven"/><text style="dominant-baseline: middle; font-size: 10.2px;" transform="translate(117.69949340820312,233)" y="0" x="0" id="text-entity-User-f4eafc64-e74c-4dc4-bc9e-77dfa7411c9c-attr-10-key" class="er entityLabel"/></g><g transform="translate(607.8292007446289,364 )" id="entity-Book-eb279c4e-bffa-4a8e-96f4-bc8128c64b94"><rect height="200" width="138.19007873535156" y="0" x="0" class="er entityBox"/><text style="dominant-baseline: middle; text-anchor: middle; font-size: 12px;" transform="translate(69.09503936767578,12)" y="0" x="0" id="text-entity-Book-eb279c4e-bffa-4a8e-96f4-bc8128c64b94" class="er entityLabel">Book</text><rect height="22" width="54.095550537109375" y="24" x="0" class="er attributeBoxOdd"/><text style="dominant-baseline: middle; font-size: 10.2px;" transform="translate(5,35)" y="0" x="0" id="text-entity-Book-eb279c4e-bffa-4a8e-96f4-bc8128c64b94-attr-1-type" class="er entityLabel">String</text><rect height="22" width="61.40684509277344" y="24" x="54.095550537109375" class="er attributeBoxOdd"/><text style="dominant-baseline: middle; font-size: 10.2px;" transform="translate(59.095550537109375,35)" y="0" x="0" id="text-entity-Book-eb279c4e-bffa-4a8e-96f4-bc8128c64b94-attr-1-name" class="er entityLabel">id</text><rect height="22" width="22.68768310546875" y="24" x="115.50239562988281" class="er attributeBoxOdd"/><text style="dominant-baseline: middle; font-size: 10.2px;" transform="translate(120.50239562988281,35)" y="0" x="0" id="text-entity-Book-eb279c4e-bffa-4a8e-96f4-bc8128c64b94-attr-1-key" class="er entityLabel">PK</text><rect height="22" width="54.095550537109375" y="46" x="0" class="er attributeBoxEven"/><text style="dominant-baseline: middle; font-size: 10.2px;" transform="translate(5,57)" y="0" x="0" id="text-entity-Book-eb279c4e-bffa-4a8e-96f4-bc8128c64b94-attr-2-type" class="er entityLabel">String</text><rect height="22" width="61.40684509277344" y="46" x="54.095550537109375" class="er attributeBoxEven"/><text style="dominant-baseline: middle; font-size: 10.2px;" transform="translate(59.095550537109375,57)" y="0" x="0" id="text-entity-Book-eb279c4e-bffa-4a8e-96f4-bc8128c64b94-attr-2-name" class="er entityLabel">title</text><rect height="22" width="22.68768310546875" y="46" x="115.50239562988281" class="er attributeBoxEven"/><text style="dominant-baseline: middle; font-size: 10.2px;" transform="translate(120.50239562988281,57)" y="0" x="0" id="text-entity-Book-eb279c4e-bffa-4a8e-96f4-bc8128c64b94-attr-2-key" class="er entityLabel"/><rect height="22" width="54.095550537109375" y="68" x="0" class="er attributeBoxOdd"/><text style="dominant-baseline: middle; font-size: 10.2px;" transform="translate(5,79)" y="0" x="0" id="text-entity-Book-eb279c4e-bffa-4a8e-96f4-bc8128c64b94-attr-3-type" class="er entityLabel">String</text><rect height="22" width="61.40684509277344" y="68" x="54.095550537109375" class="er attributeBoxOdd"/><text style="dominant-baseline: middle; font-size: 10.2px;" transform="translate(59.095550537109375,79)" y="0" x="0" id="text-entity-Book-eb279c4e-bffa-4a8e-96f4-bc8128c64b94-attr-3-name" class="er entityLabel">author</text><rect height="22" width="22.68768310546875" y="68" x="115.50239562988281" class="er attributeBoxOdd"/><text style="dominant-baseline: middle; font-size: 10.2px;" transform="translate(120.50239562988281,79)" y="0" x="0" id="text-entity-Book-eb279c4e-bffa-4a8e-96f4-bc8128c64b94-attr-3-key" class="er entityLabel"/><rect height="22" width="54.095550537109375" y="90" x="0" class="er attributeBoxEven"/><text style="dominant-baseline: middle; font-size: 10.2px;" transform="translate(5,101)" y="0" x="0" id="text-entity-Book-eb279c4e-bffa-4a8e-96f4-bc8128c64b94-attr-4-type" class="er entityLabel">String</text><rect height="22" width="61.40684509277344" y="90" x="54.095550537109375" class="er attributeBoxEven"/><text style="dominant-baseline: middle; font-size: 10.2px;" transform="translate(59.095550537109375,101)" y="0" x="0" id="text-entity-Book-eb279c4e-bffa-4a8e-96f4-bc8128c64b94-attr-4-name" class="er entityLabel">description</text><rect height="22" width="22.68768310546875" y="90" x="115.50239562988281" class="er attributeBoxEven"/><text style="dominant-baseline: middle; font-size: 10.2px;" transform="translate(120.50239562988281,101)" y="0" x="0" id="text-entity-Book-eb279c4e-bffa-4a8e-96f4-bc8128c64b94-attr-4-key" class="er entityLabel"/><rect height="22" width="54.095550537109375" y="112" x="0" class="er attributeBoxOdd"/><text style="dominant-baseline: middle; font-size: 10.2px;" transform="translate(5,123)" y="0" x="0" id="text-entity-Book-eb279c4e-bffa-4a8e-96f4-bc8128c64b94-attr-5-type" class="er entityLabel">Float</text><rect height="22" width="61.40684509277344" y="112" x="54.095550537109375" class="er attributeBoxOdd"/><text style="dominant-baseline: middle; font-size: 10.2px;" transform="translate(59.095550537109375,123)" y="0" x="0" id="text-entity-Book-eb279c4e-bffa-4a8e-96f4-bc8128c64b94-attr-5-name" class="er entityLabel">price</text><rect height="22" width="22.68768310546875" y="112" x="115.50239562988281" class="er attributeBoxOdd"/><text style="dominant-baseline: middle; font-size: 10.2px;" transform="translate(120.50239562988281,123)" y="0" x="0" id="text-entity-Book-eb279c4e-bffa-4a8e-96f4-bc8128c64b94-attr-5-key" class="er entityLabel"/><rect height="22" width="54.095550537109375" y="134" x="0" class="er attributeBoxEven"/><text style="dominant-baseline: middle; font-size: 10.2px;" transform="translate(5,145)" y="0" x="0" id="text-entity-Book-eb279c4e-bffa-4a8e-96f4-bc8128c64b94-attr-6-type" class="er entityLabel">String</text><rect height="22" width="61.40684509277344" y="134" x="54.095550537109375" class="er attributeBoxEven"/><text style="dominant-baseline: middle; font-size: 10.2px;" transform="translate(59.095550537109375,145)" y="0" x="0" id="text-entity-Book-eb279c4e-bffa-4a8e-96f4-bc8128c64b94-attr-6-name" class="er entityLabel">type</text><rect height="22" width="22.68768310546875" y="134" x="115.50239562988281" class="er attributeBoxEven"/><text style="dominant-baseline: middle; font-size: 10.2px;" transform="translate(120.50239562988281,145)" y="0" x="0" id="text-entity-Book-eb279c4e-bffa-4a8e-96f4-bc8128c64b94-attr-6-key" class="er entityLabel"/><rect height="22" width="54.095550537109375" y="156" x="0" class="er attributeBoxOdd"/><text style="dominant-baseline: middle; font-size: 10.2px;" transform="translate(5,167)" y="0" x="0" id="text-entity-Book-eb279c4e-bffa-4a8e-96f4-bc8128c64b94-attr-7-type" class="er entityLabel">DateTime</text><rect height="22" width="61.40684509277344" y="156" x="54.095550537109375" class="er attributeBoxOdd"/><text style="dominant-baseline: middle; font-size: 10.2px;" transform="translate(59.095550537109375,167)" y="0" x="0" id="text-entity-Book-eb279c4e-bffa-4a8e-96f4-bc8128c64b94-attr-7-name" class="er entityLabel">createdAt</text><rect height="22" width="22.68768310546875" y="156" x="115.50239562988281" class="er attributeBoxOdd"/><text style="dominant-baseline: middle; font-size: 10.2px;" transform="translate(120.50239562988281,167)" y="0" x="0" id="text-entity-Book-eb279c4e-bffa-4a8e-96f4-bc8128c64b94-attr-7-key" class="er entityLabel"/><rect height="22" width="54.095550537109375" y="178" x="0" class="er attributeBoxEven"/><text style="dominant-baseline: middle; font-size: 10.2px;" transform="translate(5,189)" y="0" x="0" id="text-entity-Book-eb279c4e-bffa-4a8e-96f4-bc8128c64b94-attr-8-type" class="er entityLabel">DateTime</text><rect height="22" width="61.40684509277344" y="178" x="54.095550537109375" class="er attributeBoxEven"/><text style="dominant-baseline: middle; font-size: 10.2px;" transform="translate(59.095550537109375,189)" y="0" x="0" id="text-entity-Book-eb279c4e-bffa-4a8e-96f4-bc8128c64b94-attr-8-name" class="er entityLabel">updatedAt</text><rect height="22" width="22.68768310546875" y="178" x="115.50239562988281" class="er attributeBoxEven"/><text style="dominant-baseline: middle; font-size: 10.2px;" transform="translate(120.50239562988281,189)" y="0" x="0" id="text-entity-Book-eb279c4e-bffa-4a8e-96f4-bc8128c64b94-attr-8-key" class="er entityLabel"/></g><g transform="translate(255.38717651367188,64 )" id="entity-Cart-a2f643ec-6f88-44cc-9744-5bea181c72ca"><rect height="156" width="135.38717651367188" y="0" x="0" class="er entityBox"/><text style="dominant-baseline: middle; text-anchor: middle; font-size: 12px;" transform="translate(67.69358825683594,12)" y="0" x="0" id="text-entity-Cart-a2f643ec-6f88-44cc-9744-5bea181c72ca" class="er entityLabel">Cart</text><rect height="22" width="54.095550537109375" y="24" x="0" class="er attributeBoxOdd"/><text style="dominant-baseline: middle; font-size: 10.2px;" transform="translate(5,35)" y="0" x="0" id="text-entity-Cart-a2f643ec-6f88-44cc-9744-5bea181c72ca-attr-1-type" class="er entityLabel">String</text><rect height="22" width="58.60394287109375" y="24" x="54.095550537109375" class="er attributeBoxOdd"/><text style="dominant-baseline: middle; font-size: 10.2px;" transform="translate(59.095550537109375,35)" y="0" x="0" id="text-entity-Cart-a2f643ec-6f88-44cc-9744-5bea181c72ca-attr-1-name" class="er entityLabel">id</text><rect height="22" width="22.68768310546875" y="24" x="112.69949340820312" class="er attributeBoxOdd"/><text style="dominant-baseline: middle; font-size: 10.2px;" transform="translate(117.69949340820312,35)" y="0" x="0" id="text-entity-Cart-a2f643ec-6f88-44cc-9744-5bea181c72ca-attr-1-key" class="er entityLabel">PK</text><rect height="22" width="54.095550537109375" y="46" x="0" class="er attributeBoxEven"/><text style="dominant-baseline: middle; font-size: 10.2px;" transform="translate(5,57)" y="0" x="0" id="text-entity-Cart-a2f643ec-6f88-44cc-9744-5bea181c72ca-attr-2-type" class="er entityLabel">String</text><rect height="22" width="58.60394287109375" y="46" x="54.095550537109375" class="er attributeBoxEven"/><text style="dominant-baseline: middle; font-size: 10.2px;" transform="translate(59.095550537109375,57)" y="0" x="0" id="text-entity-Cart-a2f643ec-6f88-44cc-9744-5bea181c72ca-attr-2-name" class="er entityLabel">personId</text><rect height="22" width="22.68768310546875" y="46" x="112.69949340820312" class="er attributeBoxEven"/><text style="dominant-baseline: middle; font-size: 10.2px;" transform="translate(117.69949340820312,57)" y="0" x="0" id="text-entity-Cart-a2f643ec-6f88-44cc-9744-5bea181c72ca-attr-2-key" class="er entityLabel"/><rect height="22" width="54.095550537109375" y="68" x="0" class="er attributeBoxOdd"/><text style="dominant-baseline: middle; font-size: 10.2px;" transform="translate(5,79)" y="0" x="0" id="text-entity-Cart-a2f643ec-6f88-44cc-9744-5bea181c72ca-attr-3-type" class="er entityLabel">String</text><rect height="22" width="58.60394287109375" y="68" x="54.095550537109375" class="er attributeBoxOdd"/><text style="dominant-baseline: middle; font-size: 10.2px;" transform="translate(59.095550537109375,79)" y="0" x="0" id="text-entity-Cart-a2f643ec-6f88-44cc-9744-5bea181c72ca-attr-3-name" class="er entityLabel">bookId</text><rect height="22" width="22.68768310546875" y="68" x="112.69949340820312" class="er attributeBoxOdd"/><text style="dominant-baseline: middle; font-size: 10.2px;" transform="translate(117.69949340820312,79)" y="0" x="0" id="text-entity-Cart-a2f643ec-6f88-44cc-9744-5bea181c72ca-attr-3-key" class="er entityLabel"/><rect height="22" width="54.095550537109375" y="90" x="0" class="er attributeBoxEven"/><text style="dominant-baseline: middle; font-size: 10.2px;" transform="translate(5,101)" y="0" x="0" id="text-entity-Cart-a2f643ec-6f88-44cc-9744-5bea181c72ca-attr-4-type" class="er entityLabel">Int</text><rect height="22" width="58.60394287109375" y="90" x="54.095550537109375" class="er attributeBoxEven"/><text style="dominant-baseline: middle; font-size: 10.2px;" transform="translate(59.095550537109375,101)" y="0" x="0" id="text-entity-Cart-a2f643ec-6f88-44cc-9744-5bea181c72ca-attr-4-name" class="er entityLabel">quantity</text><rect height="22" width="22.68768310546875" y="90" x="112.69949340820312" class="er attributeBoxEven"/><text style="dominant-baseline: middle; font-size: 10.2px;" transform="translate(117.69949340820312,101)" y="0" x="0" id="text-entity-Cart-a2f643ec-6f88-44cc-9744-5bea181c72ca-attr-4-key" class="er entityLabel"/><rect height="22" width="54.095550537109375" y="112" x="0" class="er attributeBoxOdd"/><text style="dominant-baseline: middle; font-size: 10.2px;" transform="translate(5,123)" y="0" x="0" id="text-entity-Cart-a2f643ec-6f88-44cc-9744-5bea181c72ca-attr-5-type" class="er entityLabel">DateTime</text><rect height="22" width="58.60394287109375" y="112" x="54.095550537109375" class="er attributeBoxOdd"/><text style="dominant-baseline: middle; font-size: 10.2px;" transform="translate(59.095550537109375,123)" y="0" x="0" id="text-entity-Cart-a2f643ec-6f88-44cc-9744-5bea181c72ca-attr-5-name" class="er entityLabel">createdAt</text><rect height="22" width="22.68768310546875" y="112" x="112.69949340820312" class="er attributeBoxOdd"/><text style="dominant-baseline: middle; font-size: 10.2px;" transform="translate(117.69949340820312,123)" y="0" x="0" id="text-entity-Cart-a2f643ec-6f88-44cc-9744-5bea181c72ca-attr-5-key" class="er entityLabel"/><rect height="22" width="54.095550537109375" y="134" x="0" class="er attributeBoxEven"/><text style="dominant-baseline: middle; font-size: 10.2px;" transform="translate(5,145)" y="0" x="0" id="text-entity-Cart-a2f643ec-6f88-44cc-9744-5bea181c72ca-attr-6-type" class="er entityLabel">DateTime</text><rect height="22" width="58.60394287109375" y="134" x="54.095550537109375" class="er attributeBoxEven"/><text style="dominant-baseline: middle; font-size: 10.2px;" transform="translate(59.095550537109375,145)" y="0" x="0" id="text-entity-Cart-a2f643ec-6f88-44cc-9744-5bea181c72ca-attr-6-name" class="er entityLabel">updatedAt</text><rect height="22" width="22.68768310546875" y="134" x="112.69949340820312" class="er attributeBoxEven"/><text style="dominant-baseline: middle; font-size: 10.2px;" transform="translate(117.69949340820312,145)" y="0" x="0" id="text-entity-Cart-a2f643ec-6f88-44cc-9744-5bea181c72ca-attr-6-key" class="er entityLabel"/></g><g transform="translate(372.19408416748047,386 )" id="entity-Order-3b18769c-073f-4a97-b2ee-0492167ff0e2"><rect height="156" width="135.63511657714844" y="0" x="0" class="er entityBox"/><text style="dominant-baseline: middle; text-anchor: middle; font-size: 12px;" transform="translate(67.81755828857422,12)" y="0" x="0" id="text-entity-Order-3b18769c-073f-4a97-b2ee-0492167ff0e2" class="er entityLabel">Order</text><rect height="22" width="54.095550537109375" y="24" x="0" class="er attributeBoxOdd"/><text style="dominant-baseline: middle; font-size: 10.2px;" transform="translate(5,35)" y="0" x="0" id="text-entity-Order-3b18769c-073f-4a97-b2ee-0492167ff0e2-attr-1-type" class="er entityLabel">String</text><rect height="22" width="58.85188293457031" y="24" x="54.095550537109375" class="er attributeBoxOdd"/><text style="dominant-baseline: middle; font-size: 10.2px;" transform="translate(59.095550537109375,35)" y="0" x="0" id="text-entity-Order-3b18769c-073f-4a97-b2ee-0492167ff0e2-attr-1-name" class="er entityLabel">id</text><rect height="22" width="22.68768310546875" y="24" x="112.94743347167969" class="er attributeBoxOdd"/><text style="dominant-baseline: middle; font-size: 10.2px;" transform="translate(117.94743347167969,35)" y="0" x="0" id="text-entity-Order-3b18769c-073f-4a97-b2ee-0492167ff0e2-attr-1-key" class="er entityLabel">PK</text><rect height="22" width="54.095550537109375" y="46" x="0" class="er attributeBoxEven"/><text style="dominant-baseline: middle; font-size: 10.2px;" transform="translate(5,57)" y="0" x="0" id="text-entity-Order-3b18769c-073f-4a97-b2ee-0492167ff0e2-attr-2-type" class="er entityLabel">String</text><rect height="22" width="58.85188293457031" y="46" x="54.095550537109375" class="er attributeBoxEven"/><text style="dominant-baseline: middle; font-size: 10.2px;" transform="translate(59.095550537109375,57)" y="0" x="0" id="text-entity-Order-3b18769c-073f-4a97-b2ee-0492167ff0e2-attr-2-name" class="er entityLabel">personId</text><rect height="22" width="22.68768310546875" y="46" x="112.94743347167969" class="er attributeBoxEven"/><text style="dominant-baseline: middle; font-size: 10.2px;" transform="translate(117.94743347167969,57)" y="0" x="0" id="text-entity-Order-3b18769c-073f-4a97-b2ee-0492167ff0e2-attr-2-key" class="er entityLabel"/><rect height="22" width="54.095550537109375" y="68" x="0" class="er attributeBoxOdd"/><text style="dominant-baseline: middle; font-size: 10.2px;" transform="translate(5,79)" y="0" x="0" id="text-entity-Order-3b18769c-073f-4a97-b2ee-0492167ff0e2-attr-3-type" class="er entityLabel">Boolean</text><rect height="22" width="58.85188293457031" y="68" x="54.095550537109375" class="er attributeBoxOdd"/><text style="dominant-baseline: middle; font-size: 10.2px;" transform="translate(59.095550537109375,79)" y="0" x="0" id="text-entity-Order-3b18769c-073f-4a97-b2ee-0492167ff0e2-attr-3-name" class="er entityLabel">completed</text><rect height="22" width="22.68768310546875" y="68" x="112.94743347167969" class="er attributeBoxOdd"/><text style="dominant-baseline: middle; font-size: 10.2px;" transform="translate(117.94743347167969,79)" y="0" x="0" id="text-entity-Order-3b18769c-073f-4a97-b2ee-0492167ff0e2-attr-3-key" class="er entityLabel"/><rect height="22" width="54.095550537109375" y="90" x="0" class="er attributeBoxEven"/><text style="dominant-baseline: middle; font-size: 10.2px;" transform="translate(5,101)" y="0" x="0" id="text-entity-Order-3b18769c-073f-4a97-b2ee-0492167ff0e2-attr-4-type" class="er entityLabel">DateTime</text><rect height="22" width="58.85188293457031" y="90" x="54.095550537109375" class="er attributeBoxEven"/><text style="dominant-baseline: middle; font-size: 10.2px;" transform="translate(59.095550537109375,101)" y="0" x="0" id="text-entity-Order-3b18769c-073f-4a97-b2ee-0492167ff0e2-attr-4-name" class="er entityLabel">createdAt</text><rect height="22" width="22.68768310546875" y="90" x="112.94743347167969" class="er attributeBoxEven"/><text style="dominant-baseline: middle; font-size: 10.2px;" transform="translate(117.94743347167969,101)" y="0" x="0" id="text-entity-Order-3b18769c-073f-4a97-b2ee-0492167ff0e2-attr-4-key" class="er entityLabel"/><rect height="22" width="54.095550537109375" y="112" x="0" class="er attributeBoxOdd"/><text style="dominant-baseline: middle; font-size: 10.2px;" transform="translate(5,123)" y="0" x="0" id="text-entity-Order-3b18769c-073f-4a97-b2ee-0492167ff0e2-attr-5-type" class="er entityLabel">DateTime</text><rect height="22" width="58.85188293457031" y="112" x="54.095550537109375" class="er attributeBoxOdd"/><text style="dominant-baseline: middle; font-size: 10.2px;" transform="translate(59.095550537109375,123)" y="0" x="0" id="text-entity-Order-3b18769c-073f-4a97-b2ee-0492167ff0e2-attr-5-name" class="er entityLabel">updatedAt</text><rect height="22" width="22.68768310546875" y="112" x="112.94743347167969" class="er attributeBoxOdd"/><text style="dominant-baseline: middle; font-size: 10.2px;" transform="translate(117.94743347167969,123)" y="0" x="0" id="text-entity-Order-3b18769c-073f-4a97-b2ee-0492167ff0e2-attr-5-key" class="er entityLabel"/><rect height="22" width="54.095550537109375" y="134" x="0" class="er attributeBoxEven"/><text style="dominant-baseline: middle; font-size: 10.2px;" transform="translate(5,145)" y="0" x="0" id="text-entity-Order-3b18769c-073f-4a97-b2ee-0492167ff0e2-attr-6-type" class="er entityLabel">Float</text><rect height="22" width="58.85188293457031" y="134" x="54.095550537109375" class="er attributeBoxEven"/><text style="dominant-baseline: middle; font-size: 10.2px;" transform="translate(59.095550537109375,145)" y="0" x="0" id="text-entity-Order-3b18769c-073f-4a97-b2ee-0492167ff0e2-attr-6-name" class="er entityLabel">totalPrice</text><rect height="22" width="22.68768310546875" y="134" x="112.94743347167969" class="er attributeBoxEven"/><text style="dominant-baseline: middle; font-size: 10.2px;" transform="translate(117.94743347167969,145)" y="0" x="0" id="text-entity-Order-3b18769c-073f-4a97-b2ee-0492167ff0e2-attr-6-key" class="er entityLabel"/></g><g transform="translate(490.77435302734375,75 )" id="entity-OrderItem-f0df1c52-1a40-4d8a-be46-a398b04388e7"><rect height="134" width="135.38717651367188" y="0" x="0" class="er entityBox"/><text style="dominant-baseline: middle; text-anchor: middle; font-size: 12px;" transform="translate(67.69358825683594,12)" y="0" x="0" id="text-entity-OrderItem-f0df1c52-1a40-4d8a-be46-a398b04388e7" class="er entityLabel">OrderItem</text><rect height="22" width="54.095550537109375" y="24" x="0" class="er attributeBoxOdd"/><text style="dominant-baseline: middle; font-size: 10.2px;" transform="translate(5,35)" y="0" x="0" id="text-entity-OrderItem-f0df1c52-1a40-4d8a-be46-a398b04388e7-attr-1-type" class="er entityLabel">String</text><rect height="22" width="58.60394287109375" y="24" x="54.095550537109375" class="er attributeBoxOdd"/><text style="dominant-baseline: middle; font-size: 10.2px;" transform="translate(59.095550537109375,35)" y="0" x="0" id="text-entity-OrderItem-f0df1c52-1a40-4d8a-be46-a398b04388e7-attr-1-name" class="er entityLabel">id</text><rect height="22" width="22.68768310546875" y="24" x="112.69949340820312" class="er attributeBoxOdd"/><text style="dominant-baseline: middle; font-size: 10.2px;" transform="translate(117.69949340820312,35)" y="0" x="0" id="text-entity-OrderItem-f0df1c52-1a40-4d8a-be46-a398b04388e7-attr-1-key" class="er entityLabel">PK</text><rect height="22" width="54.095550537109375" y="46" x="0" class="er attributeBoxEven"/><text style="dominant-baseline: middle; font-size: 10.2px;" transform="translate(5,57)" y="0" x="0" id="text-entity-OrderItem-f0df1c52-1a40-4d8a-be46-a398b04388e7-attr-2-type" class="er entityLabel">Int</text><rect height="22" width="58.60394287109375" y="46" x="54.095550537109375" class="er attributeBoxEven"/><text style="dominant-baseline: middle; font-size: 10.2px;" transform="translate(59.095550537109375,57)" y="0" x="0" id="text-entity-OrderItem-f0df1c52-1a40-4d8a-be46-a398b04388e7-attr-2-name" class="er entityLabel">quantity</text><rect height="22" width="22.68768310546875" y="46" x="112.69949340820312" class="er attributeBoxEven"/><text style="dominant-baseline: middle; font-size: 10.2px;" transform="translate(117.69949340820312,57)" y="0" x="0" id="text-entity-OrderItem-f0df1c52-1a40-4d8a-be46-a398b04388e7-attr-2-key" class="er entityLabel"/><rect height="22" width="54.095550537109375" y="68" x="0" class="er attributeBoxOdd"/><text style="dominant-baseline: middle; font-size: 10.2px;" transform="translate(5,79)" y="0" x="0" id="text-entity-OrderItem-f0df1c52-1a40-4d8a-be46-a398b04388e7-attr-3-type" class="er entityLabel">Float</text><rect height="22" width="58.60394287109375" y="68" x="54.095550537109375" class="er attributeBoxOdd"/><text style="dominant-baseline: middle; font-size: 10.2px;" transform="translate(59.095550537109375,79)" y="0" x="0" id="text-entity-OrderItem-f0df1c52-1a40-4d8a-be46-a398b04388e7-attr-3-name" class="er entityLabel">price</text><rect height="22" width="22.68768310546875" y="68" x="112.69949340820312" class="er attributeBoxOdd"/><text style="dominant-baseline: middle; font-size: 10.2px;" transform="translate(117.69949340820312,79)" y="0" x="0" id="text-entity-OrderItem-f0df1c52-1a40-4d8a-be46-a398b04388e7-attr-3-key" class="er entityLabel"/><rect height="22" width="54.095550537109375" y="90" x="0" class="er attributeBoxEven"/><text style="dominant-baseline: middle; font-size: 10.2px;" transform="translate(5,101)" y="0" x="0" id="text-entity-OrderItem-f0df1c52-1a40-4d8a-be46-a398b04388e7-attr-4-type" class="er entityLabel">DateTime</text><rect height="22" width="58.60394287109375" y="90" x="54.095550537109375" class="er attributeBoxEven"/><text style="dominant-baseline: middle; font-size: 10.2px;" transform="translate(59.095550537109375,101)" y="0" x="0" id="text-entity-OrderItem-f0df1c52-1a40-4d8a-be46-a398b04388e7-attr-4-name" class="er entityLabel">createdAt</text><rect height="22" width="22.68768310546875" y="90" x="112.69949340820312" class="er attributeBoxEven"/><text style="dominant-baseline: middle; font-size: 10.2px;" transform="translate(117.69949340820312,101)" y="0" x="0" id="text-entity-OrderItem-f0df1c52-1a40-4d8a-be46-a398b04388e7-attr-4-key" class="er entityLabel"/><rect height="22" width="54.095550537109375" y="112" x="0" class="er attributeBoxOdd"/><text style="dominant-baseline: middle; font-size: 10.2px;" transform="translate(5,123)" y="0" x="0" id="text-entity-OrderItem-f0df1c52-1a40-4d8a-be46-a398b04388e7-attr-5-type" class="er entityLabel">DateTime</text><rect height="22" width="58.60394287109375" y="112" x="54.095550537109375" class="er attributeBoxOdd"/><text style="dominant-baseline: middle; font-size: 10.2px;" transform="translate(59.095550537109375,123)" y="0" x="0" id="text-entity-OrderItem-f0df1c52-1a40-4d8a-be46-a398b04388e7-attr-5-name" class="er entityLabel">updatedAt</text><rect height="22" width="22.68768310546875" y="112" x="112.69949340820312" class="er attributeBoxOdd"/><text style="dominant-baseline: middle; font-size: 10.2px;" transform="translate(117.69949340820312,123)" y="0" x="0" id="text-entity-OrderItem-f0df1c52-1a40-4d8a-be46-a398b04388e7-attr-5-key" class="er entityLabel"/></g><rect height="14" width="30.333984375" y="284.50494384765625" x="444.7746887207031" class="er relationshipLabelBox"/><text style="text-anchor: middle; dominant-baseline: middle; font-size: 12px;" y="291.50494384765625" x="459.9416809082031" id="rel1" class="er relationshipLabel">order</text><rect height="14" width="26.564453125" y="274.7807922363281" x="639.2874145507812" class="er relationshipLabelBox"/><text style="text-anchor: middle; dominant-baseline: middle; font-size: 12px;" y="281.7807922363281" x="652.5696411132812" id="rel2" class="er relationshipLabel">book</text></svg>